<?xml version="1.0" standalone="no"?>
<!DOCTYPE svg PUBLIC "-//W3C//DTD SVG 20010904//EN"
 "http://www.w3.org/TR/2001/REC-SVG-20010904/DTD/svg10.dtd">
<svg version="1.0" xmlns="http://www.w3.org/2000/svg"
 width="512.000000pt" height="512.000000pt" viewBox="0 0 512.000000 512.000000"
 preserveAspectRatio="xMidYMid meet">

<g transform="translate(0.000000,512.000000) scale(0.100000,-0.100000)"
fill="#000000" stroke="none">
<path d="M1705 4775 l-25 -24 0 -431 0 -431 25 -24 c22 -23 32 -25 120 -25
l95 0 0 -80 0 -80 -895 0 -896 0 -24 -25 -25 -24 0 -271 0 -271 25 -24 c20
-21 34 -25 80 -25 l55 0 0 -1280 0 -1280 -80 0 -80 0 0 -80 0 -80 2480 0 2480
0 0 80 0 80 -80 0 -80 0 0 1280 0 1280 55 0 c46 0 60 4 80 25 l25 24 0 271 0
271 -25 24 -24 25 -896 0 -895 0 0 80 0 80 95 0 c88 0 98 2 120 25 l25 24 0
431 0 431 -25 24 -24 25 -831 0 -831 0 -24 -25z m1575 -455 l0 -320 -720 0
-720 0 0 320 0 320 720 0 720 0 0 -320z m-240 -560 l0 -80 -480 0 -480 0 0 80
0 80 480 0 480 0 0 -80z m1840 -400 l0 -160 -2320 0 -2320 0 0 160 0 160 2320
0 2320 0 0 -160z m-160 -1600 l0 -1280 -160 0 -160 0 0 880 0 880 55 0 c46 0
60 4 80 25 25 24 25 26 25 215 0 189 0 191 -25 215 l-24 25 -1471 0 -1471 0
-24 -25 c-25 -24 -25 -26 -25 -215 0 -189 0 -191 25 -215 20 -21 34 -25 80
-25 l55 0 0 -880 0 -880 -80 0 -80 0 0 535 0 536 -25 24 -24 25 -431 0 -431 0
-24 -25 -25 -24 0 -536 0 -535 -80 0 -80 0 0 1280 0 1280 2160 0 2160 0 0
-1280z m-320 720 l0 -80 -1360 0 -1360 0 0 80 0 80 1360 0 1360 0 0 -80z
m-160 -320 l0 -80 -1200 0 -1200 0 0 80 0 80 1200 0 1200 0 0 -80z m0 -320 l0
-80 -1200 0 -1200 0 0 80 0 80 1200 0 1200 0 0 -80z m0 -800 l0 -560 -240 0
-240 0 0 215 c0 216 0 216 -25 240 -23 24 -29 25 -160 25 l-135 0 0 215 c0
216 0 216 -25 240 l-24 25 -351 0 -351 0 -24 -25 c-25 -24 -25 -24 -25 -240
l0 -215 -135 0 c-131 0 -137 -1 -160 -25 -25 -24 -25 -24 -25 -240 l0 -215
-240 0 -240 0 0 560 0 560 1200 0 1200 0 0 -560z m-2880 -80 l0 -480 -320 0
-320 0 0 480 0 480 320 0 320 0 0 -480z m1600 240 l0 -80 80 0 80 0 0 80 0 80
80 0 80 0 0 -160 0 -160 -240 0 -240 0 0 160 0 160 80 0 80 0 0 -80z m-320
-480 l0 -80 80 0 80 0 0 80 0 80 80 0 80 0 0 -160 0 -160 -240 0 -240 0 0 160
0 160 80 0 80 0 0 -80z m640 0 l0 -80 80 0 80 0 0 80 0 80 80 0 80 0 0 -160 0
-160 -240 0 -240 0 0 160 0 160 80 0 80 0 0 -80z"/>
<path d="M2000 4320 l0 -80 560 0 560 0 0 80 0 80 -560 0 -560 0 0 -80z"/>
<path d="M800 960 l0 -80 80 0 80 0 0 80 0 80 -80 0 -80 0 0 -80z"/>
</g>
</svg>
