<?xml version="1.0" standalone="no"?>
<!DOCTYPE svg PUBLIC "-//W3C//DTD SVG 20010904//EN"
 "http://www.w3.org/TR/2001/REC-SVG-20010904/DTD/svg10.dtd">
<svg version="1.0" xmlns="http://www.w3.org/2000/svg"
 width="512.000000pt" height="512.000000pt" viewBox="0 0 512.000000 512.000000"
 preserveAspectRatio="xMidYMid meet">
<metadata>
Created by potrace 1.16, written by Peter Selinger 2001-2019
</metadata>
<g transform="translate(0.000000,512.000000) scale(0.100000,-0.100000)"
fill="#000000" stroke="none">
<path d="M1280 4185 c-696 -513 -1269 -940 -1274 -947 -6 -10 17 -48 78 -131
48 -64 91 -117 95 -117 4 0 33 18 64 41 l57 40 0 -1535 0 -1536 2260 0 2260 0
0 1536 0 1535 57 -40 c31 -23 60 -41 64 -41 14 0 181 232 176 244 -3 7 -138
111 -301 231 l-296 218 -2 561 -3 561 -452 3 -453 2 0 -225 c0 -124 -2 -225
-4 -225 -3 0 -237 171 -520 380 -283 209 -521 380 -528 379 -7 0 -582 -420
-1278 -934z m2252 -163 l973 -717 3 -1498 2 -1497 -1950 0 -1950 0 2 1497 3
1498 970 716 c534 395 971 718 972 718 1 1 440 -322 975 -717z m678 188 c0
-159 -3 -290 -6 -290 -3 0 -68 46 -145 102 l-139 103 0 187 0 188 145 0 145 0
0 -290z"/>
<path d="M1807 3903 c-4 -3 -7 -276 -7 -605 l0 -598 760 0 760 0 -2 603 -3
602 -751 3 c-413 1 -754 -1 -757 -5z m1203 -598 l0 -295 -450 0 -450 0 0 295
0 295 450 0 450 0 0 -295z"/>
<path d="M907 3003 c-4 -3 -7 -546 -7 -1205 l0 -1198 155 0 155 0 0 150 0 150
1350 0 1350 0 0 -150 0 -150 155 0 155 0 -2 603 -3 602 -1062 3 -1062 2 11 30
c6 18 8 75 6 133 -3 91 -8 110 -38 172 -43 91 -127 175 -213 215 -84 40 -166
49 -429 50 l-218 0 0 300 0 300 -148 0 c-82 0 -152 -3 -155 -7z m821 -926 c94
-51 97 -188 6 -248 -26 -17 -51 -19 -276 -19 l-248 0 0 146 0 145 243 -3 c210
-3 246 -5 275 -21z m2182 -722 l0 -145 -1350 0 -1350 0 0 145 0 145 1350 0
1350 0 0 -145z"/>
</g>
</svg>
