<?xml version="1.0" encoding="iso-8859-1"?>
<!-- Generator: Adobe Illustrator 19.0.0, SVG Export Plug-In . SVG Version: 6.00 Build 0)  -->
<svg version="1.1" id="Capa_1" xmlns="http://www.w3.org/2000/svg" xmlns:xlink="http://www.w3.org/1999/xlink" x="0px" y="0px"
	 viewBox="0 0 511.999 511.999" style="enable-background:new 0 0 511.999 511.999;" xml:space="preserve">
<g>
	<g>
		<circle cx="41.36" cy="40.998" r="15.676"/>
	</g>
</g>
<g>
	<g>
		<circle cx="65.363" cy="235.062" r="15.676"/>
	</g>
</g>
<g>
	<g>
		<circle cx="450.352" cy="235.062" r="15.676"/>
	</g>
</g>
<g>
	<g>
		<circle cx="364.144" cy="25.325" r="15.676"/>
	</g>
</g>
<g>
	<g>
		<circle cx="118.007" cy="128.981" r="15.676"/>
	</g>
</g>
<g>
	<g>
		<path d="M484.63,24.672c-13.407-13.407-30.399-21.889-49.14-24.525c-4.674-0.657-9.385,0.918-12.722,4.253
			c-3.338,3.336-4.915,8.047-4.259,12.72c2.494,17.79-3.345,35.263-16.02,47.937c-12.676,12.676-30.15,18.513-47.938,16.02
			c-4.677-0.654-9.384,0.922-12.72,4.26c-3.336,3.338-4.911,8.049-4.253,12.722c2.636,18.741,11.116,35.734,24.524,49.141
			c16.363,16.363,38.12,25.375,61.264,25.375s44.901-9.012,61.264-25.375C518.411,113.419,518.411,58.453,484.63,24.672z"/>
	</g>
</g>
<g>
	<g>
		<path d="M504.028,481.693l-58.788-98.595h-92.702v128.901H486.81c7.196,0,13.88-3.878,17.428-10.142
			C507.796,495.604,507.716,487.877,504.028,481.693z"/>
	</g>
</g>
<g>
	<g>
		<path d="M319.927,353.032c-8.068-28.551-34.375-49.528-65.483-49.528c-31.108,0.01-57.415,20.986-65.483,49.528
			c-1.654,5.873-2.546,12.066-2.546,18.46v140.506h136.057V371.492C322.472,365.098,321.58,358.905,319.927,353.032z"/>
	</g>
</g>
<g>
	<g>
		<path d="M63.648,383.098L4.86,481.693c-1.884,3.157-2.826,6.705-2.826,10.262c0,3.417,0.872,6.835,2.616,9.902
			c3.548,6.264,10.232,10.142,17.428,10.142H156.35V383.098H63.648z"/>
	</g>
</g>
<g>
	<g>
		<path d="M335.28,198.696L273.345,94.82l38.253-38.243c5.873-5.873,5.873-15.394,0-21.266c-5.873-5.873-15.394-5.873-21.266,0
			l-20.855,20.865v-41.14c0-8.308-6.735-15.033-15.033-15.033c-8.298,0-15.033,6.725-15.033,15.033v41.14L218.556,35.31
			c-5.873-5.873-15.394-5.873-21.266,0s-5.873,15.394,0,21.266l38.253,38.243l-61.935,103.876H335.28z"/>
	</g>
</g>
<g>
	<g>
		<path d="M353.209,228.762H155.679L81.577,353.033h76.527c8.659-45.269,48.556-79.573,96.33-79.594
			c47.784,0,87.701,34.325,96.36,79.593h76.517L353.209,228.762z"/>
	</g>
</g>
<g>
</g>
<g>
</g>
<g>
</g>
<g>
</g>
<g>
</g>
<g>
</g>
<g>
</g>
<g>
</g>
<g>
</g>
<g>
</g>
<g>
</g>
<g>
</g>
<g>
</g>
<g>
</g>
<g>
</g>
</svg>
