<?xml version="1.0" standalone="no"?>
<!DOCTYPE svg PUBLIC "-//W3C//DTD SVG 20010904//EN"
 "http://www.w3.org/TR/2001/REC-SVG-20010904/DTD/svg10.dtd">
<svg version="1.0" xmlns="http://www.w3.org/2000/svg"
 width="512.000000pt" height="512.000000pt" viewBox="0 0 512.000000 512.000000"
 preserveAspectRatio="xMidYMid meet">

<g transform="translate(0.000000,512.000000) scale(0.100000,-0.100000)"
fill="#000000" stroke="none">
<path d="M2410 4670 l0 -300 150 0 150 0 0 300 0 300 -150 0 -150 0 0 -300z"/>
<path d="M1440 4685 l-105 -105 213 -213 212 -212 107 108 108 107 -210 210
c-115 115 -212 210 -215 210 -3 0 -52 -47 -110 -105z"/>
<path d="M3355 4580 l-210 -210 108 -107 107 -108 212 212 213 213 -105 105
c-58 58 -107 105 -110 105 -3 0 -100 -95 -215 -210z"/>
<path d="M1955 3835 c-530 -137 -1063 -436 -1563 -878 -109 -96 -392 -383
-392 -397 0 -14 278 -295 389 -394 509 -450 1038 -747 1571 -882 170 -43 187
-43 81 1 -368 152 -661 464 -786 838 -52 155 -69 267 -68 447 0 174 20 294 74
447 129 365 425 674 783 820 102 41 76 41 -89 -2z"/>
<path d="M3080 3835 c435 -179 753 -574 837 -1039 22 -121 22 -351 0 -472 -84
-466 -402 -860 -838 -1039 -100 -41 -89 -43 47 -10 637 154 1305 562 1852
1130 78 82 142 151 142 155 0 14 -283 300 -392 397 -297 262 -619 483 -936
642 -206 103 -454 195 -666 246 -136 34 -147 31 -46 -10z"/>
<path d="M2425 3629 c-421 -53 -780 -361 -899 -773 -109 -373 -3 -780 274
-1056 128 -129 289 -224 464 -274 567 -165 1165 167 1330 738 109 373 3 779
-274 1057 -234 235 -566 349 -895 308z m273 -484 c267 -63 462 -309 462 -585
0 -329 -269 -599 -597 -600 -95 0 -162 15 -252 56 -315 145 -442 516 -281 823
80 152 226 265 395 307 69 17 198 17 273 -1z"/>
<path d="M2480 2851 c-86 -28 -150 -82 -191 -161 -20 -37 -24 -60 -24 -130 0
-73 4 -92 27 -135 31 -60 77 -104 138 -136 65 -34 195 -34 260 0 61 32 107 76
138 136 23 43 27 62 27 135 0 70 -4 93 -24 130 -54 104 -142 161 -256 166 -38
2 -81 0 -95 -5z"/>
<path d="M1545 750 l-210 -210 108 -107 107 -108 212 212 213 213 -105 105
c-58 58 -107 105 -110 105 -3 0 -100 -95 -215 -210z"/>
<path d="M3247 862 c-53 -53 -97 -102 -97 -107 0 -6 95 -105 210 -220 l210
-210 107 108 108 107 -210 210 c-115 115 -214 210 -220 210 -6 0 -54 -44 -108
-98z"/>
<path d="M2410 450 l0 -300 150 0 150 0 0 300 0 300 -150 0 -150 0 0 -300z"/>
</g>
</svg>
