<?xml version="1.0" standalone="no"?>
<!DOCTYPE svg PUBLIC "-//W3C//DTD SVG 20010904//EN"
 "http://www.w3.org/TR/2001/REC-SVG-20010904/DTD/svg10.dtd">
<svg version="1.0" xmlns="http://www.w3.org/2000/svg"
 width="512.000000pt" height="512.000000pt" viewBox="0 0 512.000000 512.000000"
 preserveAspectRatio="xMidYMid meet">
<metadata>
Created by potrace 1.16, written by Peter Selinger 2001-2019
</metadata>
<g transform="translate(0.000000,512.000000) scale(0.100000,-0.100000)"
fill="#000000" stroke="none">
<path d="M2345 4850 c-13 -15 -21 -48 -28 -125 l-10 -104 -31 -7 c-17 -3 -64
-21 -105 -40 -41 -19 -77 -34 -82 -34 -4 0 -40 27 -79 60 -74 62 -104 76 -137
66 -11 -3 -76 -64 -146 -134 -158 -160 -159 -162 -63 -278 l63 -78 -32 -70
c-18 -39 -37 -88 -44 -108 -14 -43 -18 -45 -135 -54 -131 -10 -126 -1 -126
-242 0 -178 2 -201 18 -215 15 -14 147 -37 214 -37 11 0 22 -17 34 -52 9 -29
30 -78 45 -110 l28 -56 -64 -79 c-97 -117 -97 -117 68 -281 163 -162 160 -162
277 -67 l80 65 47 -23 c27 -14 76 -35 111 -47 54 -20 62 -26 63 -49 0 -14 4
-61 8 -104 13 -120 6 -117 240 -117 108 0 201 4 207 8 22 15 32 50 39 139 4
51 13 96 19 101 6 4 29 14 51 21 22 8 66 27 99 42 l58 29 80 -65 c117 -96 121
-95 270 53 127 124 153 160 144 197 -3 13 -33 55 -66 95 -33 39 -60 75 -60 80
0 4 13 36 29 71 16 35 35 83 41 107 8 26 19 42 29 42 67 0 198 23 213 37 16
14 18 37 18 215 0 241 5 232 -126 242 -49 4 -96 9 -105 12 -9 3 -27 32 -39 67
-12 34 -33 82 -45 107 l-23 45 64 79 c96 116 95 118 -63 278 -70 71 -138 131
-151 135 -32 8 -57 -6 -134 -71 -37 -31 -71 -56 -76 -56 -6 0 -33 12 -62 26
-28 14 -74 34 -103 43 l-52 18 -10 107 c-8 88 -14 110 -29 122 -16 11 -63 14
-216 14 -184 0 -198 -1 -215 -20z m320 -221 c12 -115 23 -131 99 -148 30 -7
99 -34 153 -61 54 -28 112 -50 129 -50 23 0 48 15 101 59 l70 59 63 -63 c57
-58 62 -66 49 -82 -8 -10 -35 -44 -61 -76 -27 -32 -48 -67 -48 -78 0 -10 20
-57 45 -104 24 -46 56 -122 70 -168 30 -99 34 -102 158 -112 l87 -7 0 -94 0
-93 -45 -5 c-25 -3 -66 -9 -92 -12 -27 -3 -56 -10 -65 -15 -10 -5 -28 -45 -43
-94 -14 -47 -46 -124 -71 -171 -32 -61 -43 -92 -38 -107 4 -12 33 -53 65 -92
l58 -70 -62 -62 c-34 -35 -64 -63 -67 -63 -3 0 -38 27 -78 60 -43 35 -83 60
-97 60 -13 0 -56 -18 -97 -39 -80 -43 -131 -64 -193 -80 -73 -19 -78 -27 -90
-143 l-10 -103 -92 -3 -91 -3 -6 38 c-3 21 -8 66 -12 101 -3 35 -13 70 -22 81
-10 10 -51 29 -92 41 -41 12 -112 41 -157 66 -46 24 -93 44 -105 44 -13 0 -55
-26 -96 -60 -41 -33 -77 -60 -80 -60 -4 0 -34 28 -68 61 l-62 62 59 71 c33 39
63 82 66 95 4 18 -7 48 -40 110 -25 47 -55 120 -68 161 -33 112 -24 106 -201
125 l-58 6 0 94 0 93 96 7 c118 9 133 20 163 123 12 40 42 111 66 157 25 47
45 93 45 104 0 11 -27 52 -60 93 -33 40 -60 75 -60 78 0 3 28 33 63 67 l62 62
70 -59 c50 -42 78 -59 99 -60 16 0 75 22 130 50 56 27 128 56 161 64 33 9 65
23 71 31 7 9 15 44 19 78 3 34 8 79 11 100 l6 38 91 -3 92 -3 10 -96z"/>
<path d="M2465 4400 c-143 -20 -274 -83 -381 -183 -140 -131 -213 -289 -222
-478 -17 -396 267 -714 658 -736 313 -18 592 164 702 459 27 71 32 100 36 205
5 149 -12 239 -68 351 -91 179 -262 318 -452 366 -75 19 -199 26 -273 16z
m245 -166 c182 -51 338 -209 385 -389 20 -77 19 -216 -1 -286 -70 -239 -292
-409 -534 -409 -143 0 -277 57 -385 164 -141 139 -197 335 -149 520 78 304
386 484 684 400z"/>
<path d="M2639 3794 l-150 -145 -77 69 c-88 79 -101 85 -141 71 -35 -12 -55
-58 -41 -92 4 -12 55 -69 113 -125 148 -147 128 -151 355 68 100 96 186 186
192 200 13 32 0 74 -29 89 -50 27 -67 16 -222 -135z"/>
<path d="M3422 2165 c-29 -8 -126 -55 -217 -105 l-164 -90 -163 0 c-223 0
-314 13 -413 57 -44 19 -109 46 -145 60 -244 93 -566 61 -781 -78 -35 -23
-104 -77 -154 -120 -81 -72 -169 -128 -180 -117 -3 2 -20 56 -39 118 -20 65
-42 120 -53 127 -13 10 -91 13 -352 11 l-334 -3 -19 -26 c-19 -26 -19 -27 82
-865 67 -546 107 -847 116 -861 l14 -23 494 0 c465 0 494 1 509 18 26 28 21
55 -38 248 -30 99 -55 184 -55 189 0 11 340 228 383 244 16 6 42 11 58 11 17
0 213 -34 437 -77 383 -72 415 -76 547 -76 151 -1 252 17 374 67 60 24 1348
898 1384 938 24 29 21 57 -12 111 -64 100 -203 165 -332 154 -38 -3 -88 -15
-113 -26 -43 -18 -45 -19 -61 -1 -9 10 -44 33 -78 51 -50 26 -76 33 -138 37
-66 4 -84 1 -131 -20 l-54 -25 -34 22 c-94 58 -234 79 -338 50z m198 -151 c7
-7 -23 -27 -87 -62 l-96 -52 -54 26 -54 27 43 25 c24 13 59 30 78 38 39 15
154 14 170 -2z m-1395 -54 c39 -12 95 -35 126 -51 142 -71 150 -72 534 -79
393 -8 408 -10 488 -80 43 -38 97 -123 85 -135 -3 -4 -102 -2 -219 3 -232 10
-485 0 -527 -20 -31 -15 -48 -54 -38 -92 11 -45 38 -50 208 -38 102 8 210 8
323 2 94 -5 218 -9 277 -10 103 0 107 1 127 26 12 15 21 34 21 43 0 23 683
391 739 398 47 6 115 -10 149 -35 22 -17 17 -21 -593 -440 -661 -455 -668
-459 -838 -488 -131 -23 -196 -16 -661 70 -225 42 -432 76 -460 76 -79 -1
-138 -27 -315 -139 -90 -56 -167 -99 -171 -94 -6 6 -147 459 -226 725 -4 12
11 24 58 47 35 16 99 61 142 98 161 140 242 187 382 223 107 27 287 22 389
-10z m1812 12 l32 -17 -236 -127 -237 -127 -23 41 c-13 22 -21 43 -18 47 3 3
88 49 188 103 197 106 229 115 294 80z m-3002 -169 c15 -49 116 -382 226 -741
109 -359 199 -657 199 -662 0 -6 -135 -10 -365 -10 -328 0 -365 2 -365 16 0
18 -167 1403 -175 1452 l-6 32 230 0 230 0 26 -87z"/>
<path d="M1020 791 c-78 -24 -129 -81 -144 -160 -13 -74 33 -165 104 -201 67
-34 169 -21 223 28 52 47 73 154 43 225 -34 82 -142 133 -226 108z"/>
</g>
</svg>
