<?xml version="1.0" standalone="no"?>
<!DOCTYPE svg PUBLIC "-//W3C//DTD SVG 20010904//EN"
 "http://www.w3.org/TR/2001/REC-SVG-20010904/DTD/svg10.dtd">
<svg version="1.0" xmlns="http://www.w3.org/2000/svg"
 width="512.000000pt" height="512.000000pt" viewBox="0 0 512.000000 512.000000"
 preserveAspectRatio="xMidYMid meet">
<metadata>
Created by potrace 1.16, written by Peter Selinger 2001-2019
</metadata>
<g transform="translate(0.000000,512.000000) scale(0.100000,-0.100000)"
fill="#000000" stroke="none">
<path d="M2400 4734 c-193 -25 -391 -80 -427 -120 -27 -30 -29 -61 -7 -92 29
-42 59 -45 143 -17 276 91 566 98 836 20 433 -126 792 -468 933 -891 64 -190
65 -200 69 -671 l4 -433 -180 0 -181 0 0 348 c0 398 -8 485 -57 635 -116 351
-416 614 -778 682 -122 23 -346 16 -460 -14 -174 -45 -395 -182 -507 -313
-100 -117 -182 -271 -221 -413 -29 -109 -37 -226 -37 -577 l0 -348 -181 0
-180 0 4 433 c3 394 6 439 24 517 81 333 246 594 508 805 90 72 95 78 95 114
0 47 -33 81 -77 81 -55 0 -239 -155 -362 -305 -173 -209 -299 -490 -336 -747
l-7 -48 -312 0 c-183 0 -326 -4 -348 -10 -21 -6 -51 -22 -68 -37 -60 -50 -60
-48 -60 -443 l0 -360 -60 0 c-72 0 -119 -17 -148 -55 -21 -26 -22 -37 -22
-236 l0 -209 34 -38 c33 -36 36 -37 115 -40 l81 -4 0 -558 0 -558 -86 -3 c-82
-4 -87 -5 -115 -37 l-29 -32 0 -156 0 -156 34 -34 34 -34 2492 0 2492 0 34 34
34 34 0 156 0 156 -29 32 c-28 32 -33 33 -115 37 l-86 3 0 248 0 249 -26 20
c-30 24 -52 26 -87 10 -43 -19 -47 -46 -47 -294 l0 -235 -45 0 -45 0 0 386 c0
277 -3 398 -12 428 -24 79 -118 146 -204 146 -82 0 -162 -51 -195 -125 -17
-37 -19 -75 -19 -437 l0 -398 -50 0 -50 0 0 560 0 560 310 0 310 0 0 -160 c0
-202 11 -230 89 -230 16 0 37 10 49 23 21 22 22 32 22 194 l0 171 81 4 c79 3
82 4 115 40 l34 38 0 209 c0 199 -1 210 -22 236 -29 38 -76 55 -148 55 l-60 0
0 360 c0 395 0 393 -60 443 -17 15 -47 31 -68 37 -22 6 -165 10 -347 10 l-311
0 -18 98 c-38 203 -127 416 -250 597 -83 122 -275 313 -396 394 -181 121 -398
211 -595 247 -87 15 -370 27 -445 18z m80 -1254 c0 -448 -3 -571 -12 -574 -19
-4 -100 -32 -121 -41 -16 -7 -17 23 -15 576 l3 584 50 11 c28 7 60 13 73 13
l22 1 0 -570z m255 556 l50 -11 3 -584 c2 -553 1 -583 -15 -576 -21 9 -102 37
-120 41 -10 3 -13 126 -13 574 l0 570 23 -1 c12 0 45 -6 72 -13z m-589 -1353
c-13 -19 -33 -62 -43 -94 -17 -56 -20 -59 -50 -59 l-33 0 0 669 0 669 73 47
72 46 3 -621 2 -621 -24 -36z m902 1219 l52 -35 0 -668 0 -669 -32 0 c-31 0
-34 4 -50 55 -10 31 -29 73 -43 95 l-25 40 0 620 0 621 23 -12 c12 -7 46 -28
75 -47z m-1188 -792 l0 -580 -86 0 -86 0 4 393 c4 365 6 397 26 471 12 44 33
104 47 135 25 53 86 161 92 161 2 0 3 -261 3 -580z m1486 437 c73 -155 77
-187 82 -624 l4 -393 -86 0 -86 0 0 582 0 583 26 -38 c14 -21 41 -71 60 -110z
m-2336 -672 l0 -345 -310 0 -310 0 0 338 c0 186 3 342 7 345 3 4 143 7 310 7
l303 0 0 -345z m3718 -2 l2 -343 -310 0 -310 0 0 345 0 345 308 -2 307 -3 3
-342z m-2020 -158 c60 -33 110 -84 144 -147 19 -36 23 -58 23 -138 0 -86 -3
-100 -29 -148 -37 -66 -92 -117 -163 -149 -48 -22 -65 -25 -137 -21 -124 7
-212 62 -272 170 -26 48 -29 62 -29 148 0 79 4 102 23 137 67 127 168 186 307
180 66 -3 90 -8 133 -32z m-628 -360 c0 -32 42 -140 75 -191 l35 -54 -1020 0
-1020 0 0 130 0 130 965 0 c860 0 965 -2 965 -15z m2890 -115 l0 -130 -1020 0
-1020 0 35 54 c33 51 75 159 75 191 0 13 105 15 965 15 l965 0 0 -130z m-3960
-850 l0 -560 -50 0 -50 0 0 398 c0 362 -2 400 -19 437 -33 74 -113 125 -195
125 -86 0 -180 -67 -204 -146 -9 -30 -12 -151 -12 -428 l0 -386 -45 0 -45 0 0
560 0 560 310 0 310 0 0 -560z m520 145 l0 -415 -27 0 c-15 0 -46 -9 -69 -21
-61 -29 -84 -80 -84 -187 l0 -82 -90 0 -90 0 0 560 0 560 180 0 180 0 0 -415z
m1900 0 l0 -415 -870 0 -870 0 0 415 0 415 870 0 870 0 0 -415z m520 -145 l0
-560 -65 0 -65 0 0 94 c0 80 -3 98 -23 127 -31 46 -80 69 -149 69 l-58 0 0
415 0 415 180 0 180 0 0 -560z m-3218 223 c17 -15 18 -41 18 -400 l0 -383 -55
0 -55 0 0 380 c0 367 1 381 20 400 24 24 47 25 72 3z m3728 -3 c19 -19 20 -33
20 -400 l0 -380 -55 0 -55 0 0 382 c0 341 2 383 17 400 21 24 48 23 73 -2z
m-800 -715 l0 -65 -1075 0 -1075 0 0 65 0 65 1075 0 1075 0 0 -65z m-2870
-290 l0 -65 -320 0 -320 0 0 65 0 65 320 0 320 0 0 -65z m3380 0 l0 -65 -1610
0 -1610 0 0 65 0 65 1610 0 1610 0 0 -65z m800 0 l0 -65 -320 0 -320 0 0 65 0
65 320 0 320 0 0 -65z"/>
<path d="M2505 2655 c-21 -20 -25 -34 -25 -85 l0 -60 -50 0 c-62 0 -100 -31
-100 -80 0 -19 9 -40 25 -55 23 -23 31 -25 130 -25 99 0 107 2 130 25 24 23
25 30 25 140 0 110 -1 117 -25 140 -15 16 -36 25 -55 25 -19 0 -40 -9 -55 -25z"/>
</g>
</svg>
