<?xml version="1.0" standalone="no"?>
<!DOCTYPE svg PUBLIC "-//W3C//DTD SVG 20010904//EN"
 "http://www.w3.org/TR/2001/REC-SVG-20010904/DTD/svg10.dtd">
<svg version="1.0" xmlns="http://www.w3.org/2000/svg"
 width="512.000000pt" height="512.000000pt" viewBox="0 0 512.000000 512.000000"
 preserveAspectRatio="xMidYMid meet">
<metadata>
Created by potrace 1.16, written by Peter Selinger 2001-2019
</metadata>
<g transform="translate(0.000000,512.000000) scale(0.100000,-0.100000)"
fill="#000000" stroke="none">
<path d="M1937 4530 l-619 -500 -659 0 -659 0 0 -1115 0 -1115 2560 0 2560 0
0 1115 0 1115 -659 0 -659 0 -618 500 c-341 275 -621 500 -624 500 -3 0 -283
-225 -623 -500z m1133 -311 l510 -412 0 -848 0 -849 -220 0 -220 0 0 370 0
370 -580 0 -580 0 0 -370 0 -370 -220 0 -220 0 0 849 0 848 508 411 c279 226
508 411 510 411 2 1 232 -184 512 -410z m-1840 -1304 l0 -805 -465 0 -465 0 0
805 0 805 465 0 465 0 0 -805z m3590 0 l0 -805 -465 0 -465 0 0 805 0 805 465
0 465 0 0 -805z m-1990 -590 l0 -215 -270 0 -270 0 0 215 0 215 270 0 270 0 0
-215z"/>
<path d="M2408 4107 c-130 -45 -224 -131 -285 -262 -23 -50 -28 -77 -31 -163
-5 -123 16 -204 77 -292 187 -272 595 -272 782 0 61 88 82 169 77 292 -4 117
-27 180 -98 274 -111 148 -338 213 -522 151z m233 -310 c103 -69 107 -209 7
-275 -109 -72 -248 7 -248 141 0 84 75 157 160 157 32 0 58 -7 81 -23z"/>
<path d="M0 1205 l0 -155 200 0 200 0 0 -325 0 -325 -200 0 -200 0 0 -155 0
-155 2560 0 2560 0 0 155 0 155 -200 0 -200 0 0 325 0 325 200 0 200 0 0 155
0 155 -2560 0 -2560 0 0 -155z m1400 -480 l0 -325 -345 0 -345 0 0 325 0 325
345 0 345 0 0 -325z m1010 0 l0 -325 -350 0 -350 0 0 325 0 325 350 0 350 0 0
-325z m1000 0 l0 -325 -350 0 -350 0 0 325 0 325 350 0 350 0 0 -325z m1000 0
l0 -325 -345 0 -345 0 0 325 0 325 345 0 345 0 0 -325z"/>
</g>
</svg>
