<?xml version="1.0" encoding="UTF-8"?>
<svg width="104px" height="105px" viewBox="0 0 104 105" version="1.1" xmlns="http://www.w3.org/2000/svg" xmlns:xlink="http://www.w3.org/1999/xlink">
    <!-- Generator: Sketch 64 (93537) - https://sketch.com -->
    <title>mapquest-icon-green</title>
    <desc>Created with Sketch.</desc>
    <g id="Page-1-Copy" stroke="none" stroke-width="1" fill="none" fill-rule="evenodd">
        <g id="current-green" transform="translate(-1368.000000, -542.000000)" fill="#A5CB00">
            <path d="M1435.41519,548.419364 L1465.64107,578.936821 C1474.11964,587.495972 1474.11964,601.503318 1465.64107,610.06247 L1435.41519,640.579927 C1426.93662,649.140024 1413.06268,649.140024 1404.58504,640.579927 L1374.35823,610.06247 C1365.88059,601.503318 1365.88059,587.495972 1374.35823,578.936821 L1404.58504,548.419364 C1413.06268,539.860212 1426.93662,539.860212 1435.41519,548.419364 Z M1426.4502,571.681641 C1423.74174,571.681641 1421.54575,573.916725 1421.54575,576.673928 C1421.54575,577.619795 1423.83637,582.009565 1423.89539,582.102259 L1412.79642,582.102259 C1404.40966,582.102259 1397.58746,588.99101 1397.58746,597.459358 L1397.58746,612.933744 C1397.58746,615.354218 1399.53144,617.318784 1401.92886,617.318784 C1404.32722,617.318784 1406.27214,615.354218 1406.27214,612.933744 L1406.27214,597.459358 C1406.27214,593.826282 1409.19888,590.871394 1412.79642,590.871394 L1423.79327,590.871394 C1423.51221,591.311222 1421.62725,595.299943 1421.62725,596.071771 C1421.62725,598.828974 1423.82231,601.064058 1426.53171,601.064058 C1427.55476,601.064058 1428.50567,600.743409 1429.2917,600.197643 C1429.47157,600.112515 1441.95334,590.663303 1441.95334,590.663303 C1443.39611,589.750541 1444.27488,588.130271 1444.27488,586.385146 C1444.27488,584.640967 1443.39611,583.021642 1441.95334,582.108881 C1441.95334,582.108881 1429.38819,572.614266 1429.16428,572.515896 C1428.38669,571.989994 1427.45358,571.681641 1426.4502,571.681641 Z" id="mapquest-icon-green"></path>
        </g>
    </g>
</svg>