<?xml version="1.0" encoding="iso-8859-1"?>
<!-- Generator: Adobe Illustrator 19.0.0, SVG Export Plug-In . SVG Version: 6.00 Build 0)  -->
<svg version="1.1" id="Capa_1" xmlns="http://www.w3.org/2000/svg" xmlns:xlink="http://www.w3.org/1999/xlink" x="0px" y="0px"
	 viewBox="0 0 512.443 512.443" style="enable-background:new 0 0 512.443 512.443;" xml:space="preserve">
<g>
	<g>
		<path d="M220.643,3.003c-71.68,12.8-128,71.68-140.8,143.36c-12.8,69.12,15.36,133.12,64,171.52
			c48.64,40.96,84.48,94.72,102.4,156.16l10.24,38.4l12.8-38.4c17.92-64,58.88-117.76,107.52-161.28
			c35.84-30.72,58.88-79.36,58.88-133.12C435.683,69.563,335.843-17.477,220.643,3.003z M256.483,282.043
			c-56.32,0-102.4-46.08-102.4-102.4s46.08-102.4,102.4-102.4s102.4,46.08,102.4,102.4S312.803,282.043,256.483,282.043z"/>
	</g>
</g>
<g>
</g>
<g>
</g>
<g>
</g>
<g>
</g>
<g>
</g>
<g>
</g>
<g>
</g>
<g>
</g>
<g>
</g>
<g>
</g>
<g>
</g>
<g>
</g>
<g>
</g>
<g>
</g>
<g>
</g>
</svg>
