<?xml version="1.0" standalone="no"?>
<!DOCTYPE svg PUBLIC "-//W3C//DTD SVG 20010904//EN"
 "http://www.w3.org/TR/2001/REC-SVG-20010904/DTD/svg10.dtd">
<svg version="1.0" xmlns="http://www.w3.org/2000/svg"
 width="512.000000pt" height="512.000000pt" viewBox="0 0 512.000000 512.000000"
 preserveAspectRatio="xMidYMid meet">

<g transform="translate(0.000000,512.000000) scale(0.100000,-0.100000)"
fill="#000000" stroke="none">
<path d="M2410 4803 l0 -318 -58 -30 c-73 -38 -149 -114 -187 -187 l-30 -58
-917 0 -918 0 0 -150 0 -150 185 0 c102 0 185 -3 185 -6 0 -3 -151 -375 -335
-825 -223 -545 -335 -831 -335 -854 0 -20 7 -71 16 -113 61 -293 293 -525 586
-586 108 -22 487 -22 595 0 150 31 275 99 382 207 129 131 199 278 217 457 l6
65 -337 820 c-185 451 -339 823 -342 828 -2 4 224 7 504 7 l508 0 30 -58 c38
-73 114 -149 187 -187 l58 -30 0 -1071 0 -1070 -52 -13 c-193 -50 -404 -232
-483 -417 -20 -47 -45 -124 -45 -141 0 -10 153 -13 730 -13 577 0 730 3 730
13 -1 46 -52 167 -106 249 -93 140 -270 270 -422 309 l-52 13 0 1070 0 1071
58 30 c73 38 149 114 187 187 l30 58 503 0 c276 0 502 -3 502 -6 0 -3 -151
-375 -335 -825 -223 -545 -335 -831 -335 -854 0 -56 29 -184 57 -250 75 -178
230 -333 409 -408 108 -46 193 -57 434 -57 299 0 391 20 545 115 199 124 332
340 350 570 l5 70 -338 820 -338 820 188 3 188 2 0 150 0 150 -917 0 -918 0
-30 58 c-16 31 -52 80 -80 107 -27 28 -76 64 -107 80 l-58 30 0 318 0 317
-150 0 -150 0 0 -317z m-1253 -1751 c139 -334 255 -615 259 -624 6 -17 -23
-18 -516 -18 -493 0 -522 1 -516 18 24 67 512 1232 516 1232 3 0 119 -274 257
-608z m3320 0 c139 -334 255 -615 259 -624 6 -17 -23 -18 -516 -18 -493 0
-522 1 -516 18 24 67 512 1232 516 1232 3 0 119 -274 257 -608z"/>
<path d="M1555 596 c-83 -20 -146 -56 -211 -120 -99 -99 -134 -198 -134 -376
l0 -100 1350 0 1350 0 0 100 c0 178 -35 277 -134 376 -66 66 -144 108 -227
124 -80 15 -1931 12 -1994 -4z"/>
</g>
</svg>
