<?xml version="1.0" standalone="no"?>
<!DOCTYPE svg PUBLIC "-//W3C//DTD SVG 20010904//EN"
 "http://www.w3.org/TR/2001/REC-SVG-20010904/DTD/svg10.dtd">
<svg version="1.0" xmlns="http://www.w3.org/2000/svg"
 width="512.000000pt" height="512.000000pt" viewBox="0 0 512.000000 512.000000"
 preserveAspectRatio="xMidYMid meet">

<g transform="translate(0.000000,512.000000) scale(0.100000,-0.100000)"
fill="#000000" stroke="none">
<path d="M2918 4464 c-118 -18 -262 -55 -383 -98 l-100 -36 -671 0 c-664 0
-672 0 -698 -21 -30 -23 -35 -72 -12 -105 14 -18 34 -19 552 -24 l538 -5 -95
-70 c-52 -38 -140 -115 -197 -170 -85 -84 -102 -105 -102 -131 0 -40 32 -74
72 -74 25 0 47 16 122 88 261 252 558 409 913 484 95 20 136 23 343 23 206 -1
248 -4 340 -23 726 -157 1266 -707 1402 -1430 32 -168 32 -456 0 -624 -136
-723 -676 -1273 -1402 -1430 -93 -20 -133 -22 -345 -22 -212 0 -252 2 -345 22
-958 208 -1566 1099 -1401 2053 34 197 121 431 220 594 51 83 55 119 17 152
-37 32 -63 29 -100 -10 -37 -39 -141 -238 -185 -351 -308 -800 -54 -1702 625
-2221 50 -39 100 -75 110 -82 15 -9 -99 -12 -519 -12 -523 -1 -538 -2 -557
-21 -30 -30 -27 -83 6 -109 26 -21 34 -21 699 -21 l672 0 95 -35 c242 -90 434
-119 718 -112 280 7 453 44 697 147 642 271 1090 880 1163 1580 105 1012 -626
1947 -1637 2094 -137 20 -430 20 -555 0z"/>
<path d="M3080 4049 c-255 -18 -501 -104 -721 -251 -130 -86 -316 -273 -402
-403 -114 -173 -184 -341 -228 -545 -19 -88 -23 -136 -23 -290 0 -154 4 -202
23 -290 44 -204 114 -372 228 -545 86 -130 272 -317 402 -403 283 -189 600
-273 946 -251 637 43 1180 500 1340 1128 31 120 32 174 5 201 -40 40 -112 15
-124 -42 -3 -13 -10 -48 -16 -78 -17 -90 -58 -209 -105 -305 -188 -387 -557
-665 -980 -740 -118 -21 -342 -21 -460 0 -486 86 -895 441 -1048 910 -48 148
-62 237 -62 415 0 119 5 189 18 250 59 281 178 503 376 700 159 157 318 256
524 325 144 48 258 66 422 66 164 0 278 -18 422 -66 488 -163 837 -581 908
-1086 19 -134 26 -155 59 -171 33 -14 79 4 95 39 20 45 -15 263 -69 424 -74
221 -206 426 -386 600 -241 231 -572 383 -879 404 -44 3 -98 7 -120 9 -22 1
-87 -1 -145 -5z"/>
<path d="M338 3750 c-24 -25 -29 -36 -24 -58 4 -15 16 -35 28 -44 19 -17 55
-18 444 -18 411 0 425 1 444 20 30 30 27 83 -6 109 -26 20 -37 21 -441 21
l-415 0 -30 -30z"/>
<path d="M3165 3718 c-38 -20 -45 -40 -45 -125 0 -76 2 -86 25 -108 13 -14 36
-25 50 -25 14 0 37 11 50 25 22 21 25 33 25 104 0 95 -4 107 -41 126 -33 18
-38 18 -64 3z"/>
<path d="M2393 3400 c-26 -11 -43 -40 -43 -75 0 -18 17 -44 58 -85 50 -52 63
-60 94 -60 41 0 78 36 78 75 0 40 -120 157 -157 154 -4 0 -18 -4 -30 -9z"/>
<path d="M3925 3392 c-42 -26 -103 -97 -111 -128 -10 -39 23 -78 70 -82 34 -3
43 2 97 56 46 46 59 65 59 89 0 63 -62 98 -115 65z"/>
<path d="M796 3249 c-33 -26 -36 -79 -6 -109 19 -19 33 -20 209 -20 l190 0 20
26 c24 30 26 43 10 77 -19 41 -49 47 -228 47 -155 0 -170 -2 -195 -21z"/>
<path d="M3165 3259 c-45 -25 -45 -26 -45 -384 0 -326 1 -342 20 -362 27 -29
79 -36 260 -31 l152 3 24 28 c29 34 30 56 3 91 -20 26 -21 26 -165 26 l-144 0
0 294 c0 265 -2 296 -17 314 -22 26 -62 35 -88 21z"/>
<path d="M45 2889 c-49 -28 -58 -70 -24 -113 l20 -26 413 0 c464 0 456 -1 456
69 0 26 -7 44 -21 57 -20 18 -44 19 -423 21 -280 2 -407 -1 -421 -8z"/>
<path d="M2050 2610 c-25 -25 -26 -74 -1 -99 41 -41 191 -41 224 0 21 26 22
67 1 97 -14 20 -23 22 -110 22 -81 0 -97 -3 -114 -20z"/>
<path d="M4120 2610 c-38 -38 -22 -100 31 -119 69 -24 179 -8 199 29 16 30 12
68 -10 90 -17 17 -33 20 -110 20 -77 0 -93 -3 -110 -20z"/>
<path d="M21 2344 c-12 -15 -21 -37 -21 -50 0 -28 30 -61 62 -69 13 -3 199 -4
414 -3 369 3 393 4 413 22 14 13 21 31 21 57 0 70 8 69 -456 69 l-413 0 -20
-26z"/>
<path d="M790 1980 c-30 -30 -27 -83 6 -109 25 -19 40 -21 201 -21 l175 0 29
29 c34 35 36 59 8 95 l-20 26 -190 0 c-176 0 -190 -1 -209 -20z"/>
<path d="M2408 1880 c-43 -44 -58 -67 -58 -87 0 -61 55 -96 109 -69 41 22 121
114 121 141 0 39 -37 75 -78 75 -31 0 -44 -8 -94 -60z"/>
<path d="M3831 1914 c-25 -31 -26 -46 -7 -82 17 -31 81 -94 113 -111 48 -25
103 14 103 73 0 22 -14 43 -58 88 -50 49 -64 58 -95 58 -27 0 -41 -7 -56 -26z"/>
<path d="M3145 1635 c-22 -22 -25 -32 -25 -105 0 -93 7 -112 49 -129 24 -10
34 -10 59 3 38 20 42 31 42 127 0 71 -3 83 -25 104 -13 14 -36 25 -50 25 -14
0 -37 -11 -50 -25z"/>
<path d="M342 1473 c-12 -10 -24 -30 -28 -45 -5 -22 0 -33 24 -58 l30 -30 415
0 c404 0 415 1 441 21 33 26 36 79 6 109 -19 19 -33 20 -444 20 -389 0 -425
-1 -444 -17z"/>
</g>
</svg>
