<?xml version="1.0" standalone="no"?>
<!DOCTYPE svg PUBLIC "-//W3C//DTD SVG 20010904//EN"
 "http://www.w3.org/TR/2001/REC-SVG-20010904/DTD/svg10.dtd">
<svg version="1.0" xmlns="http://www.w3.org/2000/svg"
 width="512.000000pt" height="512.000000pt" viewBox="0 0 512.000000 512.000000"
 preserveAspectRatio="xMidYMid meet">

<g transform="translate(0.000000,512.000000) scale(0.100000,-0.100000)"
fill="#000000" stroke="none">
<path d="M2165 5097 c-21 -17 -27 -32 -27 -62 0 -30 6 -45 27 -62 26 -23 27
-23 341 -23 l314 0 -2 -257 -3 -258 -94 -7 c-392 -30 -791 -177 -1116 -412
-226 -162 -452 -405 -586 -628 l-34 -57 -237 -1 c-239 0 -279 -5 -304 -38 -22
-28 -17 -80 11 -107 l24 -25 288 0 c232 0 292 3 309 14 11 8 44 54 74 103 248
408 623 713 1075 873 388 137 846 150 1245 35 547 -158 1016 -549 1264 -1058
96 -198 158 -392 192 -608 23 -146 23 -457 0 -604 -110 -691 -537 -1260 -1170
-1555 -266 -124 -534 -182 -846 -183 -257 -2 -447 28 -668 105 -479 165 -865
484 -1124 931 -16 27 -39 52 -54 57 -38 15 -560 13 -587 -2 -54 -28 -64 -93
-21 -133 l27 -25 248 0 248 0 66 -101 c171 -261 392 -483 650 -652 110 -72
338 -184 460 -227 259 -91 463 -124 750 -124 218 0 288 7 482 50 318 70 635
223 902 433 94 73 268 248 347 346 303 381 484 897 484 1386 0 393 -124 831
-328 1154 l-51 80 109 110 c108 109 135 149 123 182 -3 10 -123 136 -267 281
-324 325 -286 313 -455 147 l-117 -114 -29 20 c-118 79 -318 177 -472 230
-182 63 -455 119 -585 119 l-58 0 0 260 0 260 311 0 311 0 29 29 c17 18 29 40
29 56 0 16 -12 38 -29 56 l-29 29 -711 0 -710 0 -26 -23z m2428 -1195 l177
-177 -65 -65 -66 -65 -37 45 c-60 74 -182 198 -255 258 l-67 56 62 63 c34 35
65 63 68 63 3 0 85 -80 183 -178z"/>
<path d="M2780 4089 c-665 -41 -1255 -433 -1560 -1038 -256 -510 -256 -1152 0
-1662 248 -493 684 -847 1210 -984 168 -44 282 -57 475 -57 301 0 529 50 800
177 376 175 715 514 890 890 82 175 128 325 161 520 22 136 22 433 0 570 -67
406 -245 754 -531 1040 -383 384 -898 577 -1445 544z m40 -312 c0 -136 1 -145
23 -164 26 -25 51 -30 90 -20 45 12 57 56 57 202 l0 127 68 -7 c527 -50 995
-339 1285 -792 138 -215 231 -488 252 -740 l8 -83 -185 0 c-171 0 -186 -1
-206 -20 -30 -28 -36 -62 -18 -98 23 -44 59 -52 244 -52 l165 0 -7 -72 c-74
-806 -728 -1460 -1533 -1534 l-71 -6 -4 140 c-3 133 -4 142 -27 166 -30 32
-78 34 -115 5 -26 -20 -26 -21 -26 -166 l0 -146 -82 8 c-196 16 -425 82 -609
175 -255 129 -509 360 -660 600 -149 235 -238 494 -264 763 l-7 67 127 0 c146
0 190 12 202 57 10 39 5 64 -20 91 -19 21 -28 22 -164 22 l-144 0 6 73 c42
485 304 940 710 1233 239 172 600 302 873 313 l32 1 0 -143z"/>
<path d="M3890 2973 c-8 -3 -273 -262 -587 -576 l-573 -572 -268 268 c-292
291 -292 291 -351 241 -24 -20 -31 -34 -31 -62 0 -33 18 -54 297 -333 163
-164 309 -303 325 -310 21 -9 35 -9 56 0 16 7 301 285 635 619 546 547 607
611 607 639 0 54 -63 104 -110 86z"/>
<path d="M222 2805 c-55 -24 -66 -91 -22 -135 19 -19 35 -20 351 -20 192 0
338 4 348 10 31 16 46 65 30 101 -22 56 -45 59 -376 59 -234 -1 -305 -4 -331
-15z"/>
<path d="M30 2280 c-45 -45 -33 -112 25 -136 30 -12 95 -14 390 -12 l353 3 26
24 c35 33 35 83 1 116 l-24 25 -376 0 c-360 0 -376 -1 -395 -20z"/>
<path d="M202 1770 c-29 -27 -37 -63 -20 -96 25 -53 36 -54 385 -52 307 3 323
4 342 23 35 34 37 77 6 113 l-27 32 -332 0 c-320 0 -333 -1 -354 -20z"/>
</g>
</svg>
