<?xml version="1.0" standalone="no"?>
<!DOCTYPE svg PUBLIC "-//W3C//DTD SVG 20010904//EN"
 "http://www.w3.org/TR/2001/REC-SVG-20010904/DTD/svg10.dtd">
<svg version="1.0" xmlns="http://www.w3.org/2000/svg"
 width="512.000000pt" height="512.000000pt" viewBox="0 0 512.000000 512.000000"
 preserveAspectRatio="xMidYMid meet">

<g transform="translate(0.000000,512.000000) scale(0.100000,-0.100000)"
fill="#333" stroke="none">
<path d="M2676 4310 c-94 -29 -134 -149 -76 -230 31 -43 53 -52 168 -67 122
-16 206 -47 286 -107 110 -83 148 -141 239 -368 l54 -136 -104 -103 c-390
-386 -553 -655 -637 -1055 l-22 -108 -231 265 c-127 145 -368 422 -536 614
l-305 350 64 7 c35 3 79 15 96 25 93 54 94 196 2 254 -30 18 -53 19 -400 19
l-369 0 -37 -25 c-51 -35 -76 -100 -59 -157 26 -85 87 -118 223 -118 l77 0
146 -166 c81 -92 149 -172 151 -179 3 -7 -34 -90 -81 -185 -78 -156 -88 -171
-108 -166 -273 76 -587 22 -812 -139 -527 -376 -538 -1150 -21 -1542 73 -55
238 -136 321 -157 339 -86 678 6 921 248 133 133 221 295 261 481 l9 40 440 5
c566 6 525 -15 536 279 12 340 82 572 249 822 67 99 336 386 350 372 4 -4 52
-120 107 -257 l100 -250 -67 -47 c-72 -50 -180 -159 -231 -234 -43 -62 -114
-216 -133 -290 -88 -331 5 -679 247 -921 243 -242 589 -335 921 -247 86 22
250 102 321 156 464 352 513 1027 103 1436 -123 123 -279 212 -445 252 -96 24
-279 31 -384 16 l-56 -8 -218 548 c-120 301 -237 583 -258 625 -131 256 -400
429 -703 452 -38 3 -83 1 -99 -4z m-681 -1955 c186 -214 349 -402 363 -417
l26 -28 -245 0 -244 0 -19 81 c-25 106 -110 277 -179 360 -30 36 -84 92 -120
124 l-65 59 60 119 c49 99 62 117 72 106 7 -8 165 -189 351 -404z m-906 41 c6
-4 -47 -121 -137 -302 -124 -250 -147 -302 -146 -339 1 -54 29 -103 74 -126
32 -17 62 -19 373 -19 l338 0 -7 -22 c-40 -132 -93 -217 -192 -310 -122 -114
-269 -171 -442 -171 -239 0 -448 124 -568 336 -70 123 -98 306 -68 446 41 191
176 367 348 450 116 56 189 72 315 67 56 -2 106 -7 112 -10z m3215 -1 c186
-39 363 -177 445 -347 55 -113 75 -207 68 -323 -14 -232 -145 -439 -343 -542
-111 -58 -187 -76 -314 -76 -179 1 -326 63 -453 192 -129 130 -189 273 -190
451 0 188 60 337 191 468 41 41 78 70 82 65 5 -4 60 -138 124 -296 63 -159
122 -300 131 -313 57 -88 196 -84 249 7 35 60 27 94 -102 414 -83 208 -116
302 -108 307 19 13 147 8 220 -7z m-2864 -202 c47 -53 130 -205 143 -260 l5
-23 -194 0 -194 0 85 170 c47 94 89 170 94 170 5 0 32 -26 61 -57z"/>
</g>
</svg>
