<?xml version="1.0" standalone="no"?>
<!DOCTYPE svg PUBLIC "-//W3C//DTD SVG 20010904//EN"
 "http://www.w3.org/TR/2001/REC-SVG-20010904/DTD/svg10.dtd">
<svg version="1.0" xmlns="http://www.w3.org/2000/svg"
 width="512.000000pt" height="512.000000pt" viewBox="0 0 512.000000 512.000000"
 preserveAspectRatio="xMidYMid meet">

<g transform="translate(0.000000,512.000000) scale(0.100000,-0.100000)"
fill="#333" stroke="none">
<path d="M1032 4954 c-160 -43 -288 -189 -312 -356 -5 -35 -10 -138 -10 -229
l0 -167 -232 -294 -233 -295 -81 -5 c-55 -3 -91 -10 -109 -22 -53 -35 -55 -52
-55 -463 0 -406 0 -408 53 -447 26 -19 43 -21 230 -24 177 -2 206 0 237 15 69
35 70 42 70 466 0 390 -1 398 -42 443 l-19 22 88 112 88 112 5 -1398 c5 -1269
7 -1403 22 -1447 23 -68 72 -140 132 -193 l51 -46 5 -257 c5 -276 7 -283 61
-315 23 -13 62 -16 244 -16 319 0 305 -14 305 297 l0 223 1030 0 1030 0 0
-223 c0 -311 -14 -297 305 -297 182 0 221 3 244 16 54 32 56 39 61 315 l5 257
51 46 c60 53 109 125 132 193 15 44 17 178 22 1446 l5 1398 88 -112 88 -111
-19 -22 c-41 -45 -42 -53 -42 -443 0 -424 1 -431 70 -466 31 -15 60 -17 237
-15 187 3 204 5 230 24 53 39 53 41 53 447 0 411 -2 428 -55 463 -18 12 -54
19 -109 22 l-81 5 -233 295 -232 294 0 167 c0 91 -5 194 -10 229 -24 169 -152
314 -316 357 -85 22 -2970 22 -3052 -1z m1347 -375 c26 -26 31 -38 31 -79 0
-41 -5 -53 -30 -79 -20 -20 -44 -32 -73 -36 -23 -3 -278 -5 -567 -3 -588 3
-565 1 -596 75 -19 45 -10 85 28 123 l30 30 573 0 573 0 31 -31z m1569 1 c38
-38 47 -78 28 -123 -31 -74 -8 -72 -596 -75 -289 -2 -544 0 -567 3 -29 4 -53
16 -73 36 -25 26 -30 38 -30 79 0 41 5 53 31 79 l31 31 573 0 573 0 30 -30z
m-66 -628 l33 -32 0 -479 c0 -521 0 -517 -57 -547 -23 -12 -222 -14 -1298 -14
-1076 0 -1275 2 -1298 14 -57 30 -57 26 -57 547 l0 478 29 30 c16 16 38 32 50
34 11 3 594 4 1293 3 l1273 -1 32 -33z m-803 -1748 c93 -19 120 -144 43 -204
-24 -19 -43 -20 -562 -20 -519 0 -538 1 -562 20 -34 26 -52 72 -44 114 7 38
47 83 79 89 35 7 1012 8 1046 1z m-1523 -255 c85 -41 136 -124 136 -220 0
-137 -106 -243 -242 -243 -95 0 -185 58 -223 143 -23 52 -25 142 -4 192 21 51
71 104 120 128 57 29 155 29 213 0z m2220 0 c85 -41 136 -124 136 -220 0 -137
-106 -243 -242 -243 -95 0 -185 58 -223 143 -23 52 -25 142 -4 192 21 51 71
104 120 128 57 29 155 29 213 0z m-646 -206 c56 -51 46 -150 -17 -184 -39 -21
-1067 -21 -1106 0 -63 34 -73 133 -17 184 l30 27 540 0 540 0 30 -27z m-20
-418 c80 -41 78 -160 -4 -199 -30 -14 -93 -16 -546 -16 -453 0 -516 2 -546 16
-81 38 -84 156 -6 198 41 23 1059 23 1102 1z"/>
</g>
</svg>
