<?xml version="1.0" standalone="no"?>
<!DOCTYPE svg PUBLIC "-//W3C//DTD SVG 20010904//EN"
 "http://www.w3.org/TR/2001/REC-SVG-20010904/DTD/svg10.dtd">
<svg version="1.0" xmlns="http://www.w3.org/2000/svg"
 width="512.000000pt" height="512.000000pt" viewBox="0 0 512.000000 512.000000"
 preserveAspectRatio="xMidYMid meet">

<g transform="translate(0.000000,512.000000) scale(0.100000,-0.100000)"
fill="#333" stroke="none">
<path d="M2694 5106 c-299 -68 -454 -396 -319 -671 142 -290 527 -354 756
-126 152 153 183 368 80 569 -27 53 -113 140 -174 176 -97 56 -233 77 -343 52z"/>
<path d="M2361 4039 c-57 -10 -88 -22 -846 -332 l-500 -205 -3 -561 -2 -561
240 0 240 0 2 401 3 401 198 84 c110 47 201 83 204 80 4 -3 -614 -3201 -642
-3323 l-5 -23 249 0 c190 0 250 3 253 13 3 6 97 434 209 949 112 516 207 937
211 935 3 -1 119 -107 257 -236 l251 -233 0 -714 0 -714 240 0 240 0 0 897 0
898 -247 247 -246 246 67 339 c37 186 69 346 72 355 4 13 18 2 61 -45 237
-262 549 -443 888 -516 92 -20 256 -41 320 -41 l35 0 0 240 0 240 -52 0 c-29
0 -94 7 -143 15 -244 39 -489 167 -667 348 -99 101 -153 178 -303 432 -67 113
-140 222 -167 251 -59 63 -146 110 -235 129 -76 16 -103 17 -182 4z"/>
</g>
</svg>
